<svg xmlns="http://www.w3.org/2000/svg" fill="white" enable-background="new 0 0 100 100" viewBox="0 0 100 100"><path d="M50,5C25.2,5,5,25.2,5,50c0,24.8,20.2,45,45,45c1.1,0,2-0.9,2-2s-0.9-2-2-2C27.4,91,9,72.6,9,50S27.4,9,50,9s41,18.4,41,41
	v10c0,5-4,9-9,9s-9-4-9-9V50c0-12.7-10.3-23-23-23c-12.7,0-23,10.3-23,23c0,12.7,10.3,23,23,23c8.1,0,15.1-4.2,19.3-10.4
	C70.4,68.5,75.7,73,82,73c7.2,0,13-5.8,13-13V50C95,25.2,74.8,5,50,5z M50,69c-10.5,0-19-8.5-19-19s8.5-19,19-19s19,8.5,19,19
	S60.5,69,50,69z"></path></svg>