<svg version="1.0" xmlns="http://www.w3.org/2000/svg"  viewBox="0 0 158 130" preserveAspectRatio="xMidYMid meet">
 <g fill="white">
  <path d="M29.50 129.25 c-10.45 -2.50 -17.20 -5.20 -27.35 -10.80 l-2.15 -1.20 0 -3.60 0 -3.65 8.15 0 c6.85 0 8.85 -0.20 13.10 -1.20 6.35 -1.55 9.20 -2.50 13.15 -4.40 3 -1.50 3.90 -2.40 2.35 -2.40 -0.45 0 -2.05 -0.65 -3.65 -1.45 -9.25 -4.65 -16.55 -14 -17 -21.65 -0.15 -2.55 -0.05 -3.45 0.45 -3.65 0.50 -0.20 -0.30 -1.30 -2.40 -3.50 -5.65 -5.95 -8.75 -13.15 -9.40 -21.90 -0.40 -5.90 0.15 -7.35 3 -7.35 l1.75 0 -0.95 -1.95 c-2.80 -5.50 -3.30 -7.85 -3.30 -16.30 0 -8.35 0.50 -11.10 2.90 -16 1.55 -3.15 2.25 -3.75 4.65 -3.75 2.05 0 2.30 0.20 9.30 7.15 8.25 8.25 14.50 12.70 24.10 17.35 7 3.30 11.85 5 19.65 6.75 8.25 1.85 7.65 2.15 7.65 -3.60 0 -12.75 7.05 -24.15 18.45 -29.80 l4.20 -2.10 12.35 0 12.30 0 3.75 1.85 c2 1 4.75 2.75 6.10 3.85 2.20 1.85 2.45 1.95 4.25 1.50 2.85 -0.75 6.95 -2.50 10.95 -4.55 3.80 -2 7.35 -2.50 8.55 -1.30 1.50 1.50 0.45 6.40 -2.45 12 -0.40 0.80 -0.35 0.85 0.80 0.40 0.75 -0.30 2.20 -0.50 3.30 -0.50 l1.95 0 0 3.95 c0 3.75 -0.10 4 -1.85 6.35 -2.05 2.70 -8.60 9.40 -10.80 11.10 -1.40 1.05 -1.40 1.10 -1.85 8.65 -0.25 4.20 -0.95 10 -1.55 12.90 -0.95 5 -3.65 14.40 -4.50 16.05 -0.20 0.40 -1.30 2.85 -2.45 5.45 -5.50 12.50 -14.85 24.90 -25.15 33.20 -11.40 9.25 -22.90 14.80 -37.60 18.15 -4.20 0.95 -38.75 0.90 -42.75 -0.05z m28.30 -5.75 c16.75 -1.55 33.65 -8.20 45.20 -17.75 3.50 -2.85 9.90 -9.20 12.60 -12.40 3.50 -4.20 8.50 -11.95 10.90 -16.85 1.15 -2.35 2.30 -4.65 2.55 -5.15 0.85 -1.60 3.30 -8.95 4.65 -13.85 1.60 -6 2.80 -15.10 2.80 -21.45 l0 -4.90 3.45 -3 3.40 -3 -3.90 0.25 c-4.70 0.25 -5.45 -0.15 -5.45 -3.10 0 -2.45 0.30 -2.90 4.15 -5.75 3 -2.25 4.20 -3.55 2.50 -2.65 -1.40 0.75 -7.40 2.10 -9.40 2.10 -1.30 0 -2.35 -0.55 -4.60 -2.50 -3.65 -3.20 -9.90 -6.25 -14.30 -7.05 -7.55 -1.40 -16.45 1.80 -22.90 8.10 -2.60 2.60 -3.85 4.35 -5.65 8 -2.80 5.80 -3.40 9.30 -2.65 15.85 0.50 4.40 0.50 4.70 -0.50 5.70 -1 1 -1.25 1 -6.70 0.50 -16.30 -1.55 -29.55 -6.05 -42.45 -14.35 -4.85 -3.15 -12.40 -9.20 -15.45 -12.45 -0.95 -1 -1.90 -1.80 -2.10 -1.80 -0.15 0 -0.55 1.30 -0.90 2.85 -1.70 8.65 1 17.15 7.60 23.80 2 2 4.10 4 4.75 4.45 0.80 0.70 1.10 1.40 1.10 3 0 2.95 -1.05 3.90 -4.20 3.85 -2.95 -0.05 -7.15 -0.65 -8.50 -1.20 -0.80 -0.35 -0.85 -0.25 -0.60 0.80 0.20 0.65 1.20 2.90 2.15 4.95 3.45 7.10 10.35 12.75 18.65 15.20 3.15 0.95 3.50 1.35 3.50 4.10 0 3 -1 3.65 -6.55 4.25 -2.60 0.30 -4.75 0.60 -4.85 0.70 -0.30 0.30 3.95 5.20 6.30 7.15 4.25 3.55 11.65 6.55 16.25 6.60 3.20 0 3.85 0.65 3.85 3.65 0 2.90 0.35 2.50 -5.50 6.60 -3.20 2.25 -11.35 6.15 -16 7.65 -1.80 0.55 -5.35 1.40 -7.95 1.90 l-4.70 0.85 1.70 0.70 c7.35 3.15 20.55 5.95 28.75 6.10 1.95 0 6 -0.20 9 -0.45z"></path>
 </g>
 
</svg>